# xmcd CD database file
#
# Track frame offsets:
#	182
#	16342
#	30545
#	42667
#	56852
#	69922
#	80442
#	91605
#	109912
#	123980
#	143455
#	160595
#	172210
#	189752
#	206900
#
# Disc length: 3004 seconds
#
# Revision: 0
# Processed by: cddbd v1.5PL3 Copyright (c) Steve Scherf et al.
# Submitted via: CDex 1.51
#
DISCID=c30bba0f
DTITLE=Diversity of Country - 25 years of strictly country magazine (3/3)
DYEAR=1996
DGENRE=Country
TTITLE0=Mike Dowling - Deep River Blues
TTITLE1=Liz Meyer - Gone
TTITLE2=Dan Crary - Little Sadie
TTITLE3=Weary Hearts - Waltz Of The Wind
TTITLE4=Jerrycan - Stoney Man Mountain
TTITLE5=Charlie Louvin - Make Him A Soldier
TTITLE6=Bill Clifton, Red Rector and Art Stamper - Won't It Be Beautiful There
TTITLE7=White Mountain Bluegrass - Stranger In My Home
TTITLE8=Yoshihiro Arita - Fisher Hornpipes
TTITLE9=Reckless Fingers - Walk With Me
TTITLE10=Bob Paisley and The Southern Grass - Behind These Prison Waltz Of Love
TTITLE11=Alabama Country Boys - Tik-a-Tee, Tik-a-Tay
TTITLE12=Jimmy Gaudreau's Bluegrass Unit - Drifting Too Far From The Shore
TTITLE13=Robin and Linda Williams - Seventeen Years Old
TTITLE14=Sally van Meter and Tammy Fassaert Band - Montana Cowboy
EXTD=YEAR: 1996
EXTT0=
EXTT1=
EXTT2=
EXTT3=
EXTT4=
EXTT5=
EXTT6=
EXTT7=
EXTT8=
EXTT9=
EXTT10=
EXTT11=
EXTT12=
EXTT13=
EXTT14=
PLAYORDER=
